<mxfile host="app.diagrams.net" agent="Mozilla/5.0 (Windows NT 10.0; Win64; x64) AppleWebKit/537.36 (KHTML, like Gecko) Chrome/133.0.0.0 Safari/537.36" version="26.0.12">
  <diagram name="Page-1" id="2YBvvXClWsGukQMizWep">
    <mxGraphModel dx="2140" dy="522" grid="1" gridSize="10" guides="1" tooltips="1" connect="1" arrows="1" fold="1" page="1" pageScale="1" pageWidth="850" pageHeight="1100" math="0" shadow="0">
      <root>
        <mxCell id="0" />
        <mxCell id="1" parent="0" />
        <mxCell id="aM9ryv3xv72pqoxQDRHE-1" value="Mobile App" style="shape=umlLifeline;perimeter=lifelinePerimeter;whiteSpace=wrap;html=1;container=0;dropTarget=0;collapsible=0;recursiveResize=0;outlineConnect=0;portConstraint=eastwest;newEdgeStyle={&quot;edgeStyle&quot;:&quot;elbowEdgeStyle&quot;,&quot;elbow&quot;:&quot;vertical&quot;,&quot;curved&quot;:0,&quot;rounded&quot;:0};" parent="1" vertex="1">
          <mxGeometry x="170" y="30" width="100" height="730" as="geometry" />
        </mxCell>
        <mxCell id="WJhJ3tFlkKqdh5MxnL50-64" value="" style="html=1;points=[[0,0,0,0,5],[0,1,0,0,-5],[1,0,0,0,5],[1,1,0,0,-5]];perimeter=orthogonalPerimeter;outlineConnect=0;targetShapes=umlLifeline;portConstraint=eastwest;newEdgeStyle={&quot;curved&quot;:0,&quot;rounded&quot;:0};" parent="aM9ryv3xv72pqoxQDRHE-1" vertex="1">
          <mxGeometry x="50" y="220" width="10" height="330" as="geometry" />
        </mxCell>
        <mxCell id="aM9ryv3xv72pqoxQDRHE-5" value="Server" style="shape=umlLifeline;perimeter=lifelinePerimeter;whiteSpace=wrap;html=1;container=0;dropTarget=0;collapsible=0;recursiveResize=0;outlineConnect=0;portConstraint=eastwest;newEdgeStyle={&quot;edgeStyle&quot;:&quot;elbowEdgeStyle&quot;,&quot;elbow&quot;:&quot;vertical&quot;,&quot;curved&quot;:0,&quot;rounded&quot;:0};size=40;" parent="1" vertex="1">
          <mxGeometry x="980" y="30" width="100" height="730" as="geometry" />
        </mxCell>
        <mxCell id="WJhJ3tFlkKqdh5MxnL50-29" value="" style="html=1;points=[[0,0,0,0,5],[0,1,0,0,-5],[1,0,0,0,5],[1,1,0,0,-5]];perimeter=orthogonalPerimeter;outlineConnect=0;targetShapes=umlLifeline;portConstraint=eastwest;newEdgeStyle={&quot;curved&quot;:0,&quot;rounded&quot;:0};" parent="aM9ryv3xv72pqoxQDRHE-5" vertex="1">
          <mxGeometry x="45" y="190" width="10" height="510" as="geometry" />
        </mxCell>
        <mxCell id="WJhJ3tFlkKqdh5MxnL50-1" value="" style="shape=umlLifeline;perimeter=lifelinePerimeter;whiteSpace=wrap;html=1;container=1;dropTarget=0;collapsible=0;recursiveResize=0;outlineConnect=0;portConstraint=eastwest;newEdgeStyle={&quot;curved&quot;:0,&quot;rounded&quot;:0};participant=umlActor;" parent="1" vertex="1">
          <mxGeometry x="60" y="30" width="20" height="730" as="geometry" />
        </mxCell>
        <mxCell id="WJhJ3tFlkKqdh5MxnL50-58" value="" style="html=1;points=[[0,0,0,0,5],[0,1,0,0,-5],[1,0,0,0,5],[1,1,0,0,-5]];perimeter=orthogonalPerimeter;outlineConnect=0;targetShapes=umlLifeline;portConstraint=eastwest;newEdgeStyle={&quot;curved&quot;:0,&quot;rounded&quot;:0};" parent="WJhJ3tFlkKqdh5MxnL50-1" vertex="1">
          <mxGeometry x="5" y="220" width="10" height="320" as="geometry" />
        </mxCell>
        <mxCell id="WJhJ3tFlkKqdh5MxnL50-3" value="ESP32" style="shape=umlLifeline;perimeter=lifelinePerimeter;whiteSpace=wrap;html=1;container=0;dropTarget=0;collapsible=0;recursiveResize=0;outlineConnect=0;portConstraint=eastwest;newEdgeStyle={&quot;edgeStyle&quot;:&quot;elbowEdgeStyle&quot;,&quot;elbow&quot;:&quot;vertical&quot;,&quot;curved&quot;:0,&quot;rounded&quot;:0};" parent="1" vertex="1">
          <mxGeometry x="790" y="30" width="100" height="730" as="geometry" />
        </mxCell>
        <mxCell id="WJhJ3tFlkKqdh5MxnL50-11" value="" style="html=1;points=[[0,0,0,0,5],[0,1,0,0,-5],[1,0,0,0,5],[1,1,0,0,-5]];perimeter=orthogonalPerimeter;outlineConnect=0;targetShapes=umlLifeline;portConstraint=eastwest;newEdgeStyle={&quot;curved&quot;:0,&quot;rounded&quot;:0};" parent="WJhJ3tFlkKqdh5MxnL50-3" vertex="1">
          <mxGeometry x="44.999999999999986" y="80" width="10" height="40" as="geometry" />
        </mxCell>
        <mxCell id="WJhJ3tFlkKqdh5MxnL50-12" value="Initialize Hardware()" style="html=1;align=left;spacingLeft=2;endArrow=block;rounded=0;edgeStyle=orthogonalEdgeStyle;curved=0;rounded=0;" parent="WJhJ3tFlkKqdh5MxnL50-3" target="WJhJ3tFlkKqdh5MxnL50-11" edge="1">
          <mxGeometry relative="1" as="geometry">
            <mxPoint x="50" y="70" as="sourcePoint" />
            <Array as="points">
              <mxPoint x="70" y="70" />
              <mxPoint x="70" y="100" />
            </Array>
          </mxGeometry>
        </mxCell>
        <mxCell id="WJhJ3tFlkKqdh5MxnL50-27" value="" style="html=1;points=[[0,0,0,0,5],[0,1,0,0,-5],[1,0,0,0,5],[1,1,0,0,-5]];perimeter=orthogonalPerimeter;outlineConnect=0;targetShapes=umlLifeline;portConstraint=eastwest;newEdgeStyle={&quot;curved&quot;:0,&quot;rounded&quot;:0};" parent="WJhJ3tFlkKqdh5MxnL50-3" vertex="1">
          <mxGeometry x="45" y="140" width="10" height="40" as="geometry" />
        </mxCell>
        <mxCell id="WJhJ3tFlkKqdh5MxnL50-28" value="Connect To WI-FI()" style="html=1;align=left;spacingLeft=2;endArrow=block;rounded=0;edgeStyle=orthogonalEdgeStyle;curved=0;rounded=0;" parent="WJhJ3tFlkKqdh5MxnL50-3" target="WJhJ3tFlkKqdh5MxnL50-27" edge="1">
          <mxGeometry relative="1" as="geometry">
            <mxPoint x="50" y="130" as="sourcePoint" />
            <Array as="points">
              <mxPoint x="70" y="130" />
              <mxPoint x="70" y="160" />
            </Array>
          </mxGeometry>
        </mxCell>
        <mxCell id="WJhJ3tFlkKqdh5MxnL50-68" value="" style="html=1;points=[[0,0,0,0,5],[0,1,0,0,-5],[1,0,0,0,5],[1,1,0,0,-5]];perimeter=orthogonalPerimeter;outlineConnect=0;targetShapes=umlLifeline;portConstraint=eastwest;newEdgeStyle={&quot;curved&quot;:0,&quot;rounded&quot;:0};" parent="WJhJ3tFlkKqdh5MxnL50-3" vertex="1">
          <mxGeometry x="45" y="230" width="10" height="460" as="geometry" />
        </mxCell>
        <mxCell id="WJhJ3tFlkKqdh5MxnL50-4" value="GM65" style="shape=umlLifeline;perimeter=lifelinePerimeter;whiteSpace=wrap;html=1;container=0;dropTarget=0;collapsible=0;recursiveResize=0;outlineConnect=0;portConstraint=eastwest;newEdgeStyle={&quot;edgeStyle&quot;:&quot;elbowEdgeStyle&quot;,&quot;elbow&quot;:&quot;vertical&quot;,&quot;curved&quot;:0,&quot;rounded&quot;:0};" parent="1" vertex="1">
          <mxGeometry x="320" y="30" width="100" height="730" as="geometry" />
        </mxCell>
        <mxCell id="WJhJ3tFlkKqdh5MxnL50-5" value="Weight Sensor" style="shape=umlLifeline;perimeter=lifelinePerimeter;whiteSpace=wrap;html=1;container=0;dropTarget=0;collapsible=0;recursiveResize=0;outlineConnect=0;portConstraint=eastwest;newEdgeStyle={&quot;edgeStyle&quot;:&quot;elbowEdgeStyle&quot;,&quot;elbow&quot;:&quot;vertical&quot;,&quot;curved&quot;:0,&quot;rounded&quot;:0};" parent="1" vertex="1">
          <mxGeometry x="650" y="30" width="100" height="730" as="geometry" />
        </mxCell>
        <mxCell id="WJhJ3tFlkKqdh5MxnL50-30" value="Request Connection()" style="html=1;verticalAlign=bottom;endArrow=block;curved=0;rounded=0;entryX=0;entryY=0;entryDx=0;entryDy=5;" parent="1" source="WJhJ3tFlkKqdh5MxnL50-3" target="WJhJ3tFlkKqdh5MxnL50-29" edge="1">
          <mxGeometry relative="1" as="geometry">
            <mxPoint x="860" y="225" as="sourcePoint" />
          </mxGeometry>
        </mxCell>
        <mxCell id="WJhJ3tFlkKqdh5MxnL50-31" value="Connection Established" style="html=1;verticalAlign=bottom;endArrow=open;dashed=1;endSize=8;curved=0;rounded=0;entryX=1;entryY=0;entryDx=0;entryDy=5;entryPerimeter=0;" parent="1" target="WJhJ3tFlkKqdh5MxnL50-68" edge="1">
          <mxGeometry relative="1" as="geometry">
            <mxPoint x="850" y="270" as="targetPoint" />
            <mxPoint x="1020" y="265" as="sourcePoint" />
          </mxGeometry>
        </mxCell>
        <mxCell id="WJhJ3tFlkKqdh5MxnL50-32" value="GPS Module" style="shape=umlLifeline;perimeter=lifelinePerimeter;whiteSpace=wrap;html=1;container=0;dropTarget=0;collapsible=0;recursiveResize=0;outlineConnect=0;portConstraint=eastwest;newEdgeStyle={&quot;edgeStyle&quot;:&quot;elbowEdgeStyle&quot;,&quot;elbow&quot;:&quot;vertical&quot;,&quot;curved&quot;:0,&quot;rounded&quot;:0};" parent="1" vertex="1">
          <mxGeometry x="490" y="30" width="110" height="730" as="geometry" />
        </mxCell>
        <mxCell id="WJhJ3tFlkKqdh5MxnL50-63" value="" style="html=1;points=[[0,0,0,0,5],[0,1,0,0,-5],[1,0,0,0,5],[1,1,0,0,-5]];perimeter=orthogonalPerimeter;outlineConnect=0;targetShapes=umlLifeline;portConstraint=eastwest;newEdgeStyle={&quot;curved&quot;:0,&quot;rounded&quot;:0};" parent="WJhJ3tFlkKqdh5MxnL50-32" vertex="1">
          <mxGeometry x="50" y="620" width="10" height="80" as="geometry" />
        </mxCell>
        <mxCell id="WJhJ3tFlkKqdh5MxnL50-35" value="Connect User To Cart()" style="html=1;verticalAlign=bottom;endArrow=block;curved=0;rounded=0;entryX=0;entryY=0;entryDx=0;entryDy=5;" parent="1" source="WJhJ3tFlkKqdh5MxnL50-64" edge="1">
          <mxGeometry relative="1" as="geometry">
            <mxPoint x="219.3888888888889" y="285" as="sourcePoint" />
            <mxPoint x="1024.9999999999995" y="285" as="targetPoint" />
          </mxGeometry>
        </mxCell>
        <mxCell id="WJhJ3tFlkKqdh5MxnL50-33" value="Scan QR Code on Cart" style="html=1;verticalAlign=bottom;endArrow=block;curved=0;rounded=0;" parent="1" source="WJhJ3tFlkKqdh5MxnL50-58" edge="1">
          <mxGeometry width="80" relative="1" as="geometry">
            <mxPoint x="80" y="260" as="sourcePoint" />
            <mxPoint x="219.5" y="260" as="targetPoint" />
            <Array as="points">
              <mxPoint x="140" y="260" />
              <mxPoint x="180" y="260" />
              <mxPoint x="190" y="260" />
            </Array>
          </mxGeometry>
        </mxCell>
        <mxCell id="WJhJ3tFlkKqdh5MxnL50-38" value="Turn ON GM65()" style="html=1;verticalAlign=bottom;endArrow=block;curved=0;rounded=0;" parent="1" target="WJhJ3tFlkKqdh5MxnL50-4" edge="1">
          <mxGeometry width="80" relative="1" as="geometry">
            <mxPoint x="840.61" y="330" as="sourcePoint" />
            <mxPoint x="749.9988888888889" y="330" as="targetPoint" />
          </mxGeometry>
        </mxCell>
        <mxCell id="WJhJ3tFlkKqdh5MxnL50-39" value="Turn ON Weight Sensor()" style="html=1;verticalAlign=bottom;endArrow=block;curved=0;rounded=0;" parent="1" edge="1" source="WJhJ3tFlkKqdh5MxnL50-68">
          <mxGeometry width="80" relative="1" as="geometry">
            <mxPoint x="830" y="360" as="sourcePoint" />
            <mxPoint x="699.3888888888891" y="360" as="targetPoint" />
          </mxGeometry>
        </mxCell>
        <mxCell id="WJhJ3tFlkKqdh5MxnL50-40" value="User Scan Barcode" style="html=1;verticalAlign=bottom;endArrow=block;curved=0;rounded=0;" parent="1" edge="1">
          <mxGeometry width="80" relative="1" as="geometry">
            <mxPoint x="75" y="390" as="sourcePoint" />
            <mxPoint x="360" y="390" as="targetPoint" />
          </mxGeometry>
        </mxCell>
        <mxCell id="WJhJ3tFlkKqdh5MxnL50-42" value="Send Barcode Via API()" style="html=1;verticalAlign=bottom;endArrow=block;curved=0;rounded=0;" parent="1" target="WJhJ3tFlkKqdh5MxnL50-29" edge="1">
          <mxGeometry width="80" relative="1" as="geometry">
            <mxPoint x="850" y="434" as="sourcePoint" />
            <mxPoint x="1020" y="434" as="targetPoint" />
          </mxGeometry>
        </mxCell>
        <mxCell id="WJhJ3tFlkKqdh5MxnL50-44" value="Send Total Weight()" style="html=1;verticalAlign=bottom;endArrow=block;curved=0;rounded=0;" parent="1" edge="1">
          <mxGeometry width="80" relative="1" as="geometry">
            <mxPoint x="700" y="449.44" as="sourcePoint" />
            <mxPoint x="840" y="449.44" as="targetPoint" />
          </mxGeometry>
        </mxCell>
        <mxCell id="WJhJ3tFlkKqdh5MxnL50-45" value="Send Total Weight()" style="html=1;verticalAlign=bottom;endArrow=block;curved=0;rounded=0;" parent="1" target="WJhJ3tFlkKqdh5MxnL50-29" edge="1">
          <mxGeometry width="80" relative="1" as="geometry">
            <mxPoint x="850" y="470" as="sourcePoint" />
            <mxPoint x="1020" y="469" as="targetPoint" />
          </mxGeometry>
        </mxCell>
        <mxCell id="WJhJ3tFlkKqdh5MxnL50-46" value="Loop" style="shape=umlFrame;whiteSpace=wrap;html=1;pointerEvents=0;" parent="1" vertex="1">
          <mxGeometry x="-10" y="370" width="1100" height="130" as="geometry" />
        </mxCell>
        <mxCell id="WJhJ3tFlkKqdh5MxnL50-47" value="Checkout &amp;amp; Payment" style="html=1;verticalAlign=bottom;endArrow=block;curved=0;rounded=0;" parent="1" target="aM9ryv3xv72pqoxQDRHE-1" edge="1">
          <mxGeometry width="80" relative="1" as="geometry">
            <mxPoint x="80" y="550" as="sourcePoint" />
            <mxPoint x="150" y="549" as="targetPoint" />
          </mxGeometry>
        </mxCell>
        <mxCell id="WJhJ3tFlkKqdh5MxnL50-49" value="User End Shopping()" style="html=1;verticalAlign=bottom;endArrow=block;curved=0;rounded=0;" parent="1" edge="1">
          <mxGeometry x="-0.0032" width="80" relative="1" as="geometry">
            <mxPoint x="1020" y="600" as="sourcePoint" />
            <mxPoint x="850" y="600" as="targetPoint" />
            <mxPoint as="offset" />
          </mxGeometry>
        </mxCell>
        <mxCell id="WJhJ3tFlkKqdh5MxnL50-50" value="Turn OFF Weight Sensor()" style="html=1;verticalAlign=bottom;endArrow=block;curved=0;rounded=0;" parent="1" edge="1">
          <mxGeometry width="80" relative="1" as="geometry">
            <mxPoint x="839.5000000000005" y="620" as="sourcePoint" />
            <mxPoint x="699.3888888888891" y="620" as="targetPoint" />
          </mxGeometry>
        </mxCell>
        <mxCell id="WJhJ3tFlkKqdh5MxnL50-51" value="Turn OFF GM65()" style="html=1;verticalAlign=bottom;endArrow=block;curved=0;rounded=0;" parent="1" edge="1">
          <mxGeometry x="-0.0648" width="80" relative="1" as="geometry">
            <mxPoint x="840.7200000000005" y="640" as="sourcePoint" />
            <mxPoint x="369.99888888888916" y="640" as="targetPoint" />
            <mxPoint as="offset" />
          </mxGeometry>
        </mxCell>
        <mxCell id="WJhJ3tFlkKqdh5MxnL50-52" value="Turn ON GPS Modual()" style="html=1;verticalAlign=bottom;endArrow=block;curved=0;rounded=0;" parent="1" edge="1">
          <mxGeometry width="80" relative="1" as="geometry">
            <mxPoint x="840.1100000000005" y="670" as="sourcePoint" />
            <mxPoint x="550" y="670" as="targetPoint" />
          </mxGeometry>
        </mxCell>
        <mxCell id="WJhJ3tFlkKqdh5MxnL50-55" value="Send Location()" style="html=1;verticalAlign=bottom;endArrow=block;curved=0;rounded=0;" parent="1" edge="1">
          <mxGeometry width="80" relative="1" as="geometry">
            <mxPoint x="850" y="710" as="sourcePoint" />
            <mxPoint x="1025" y="710" as="targetPoint" />
          </mxGeometry>
        </mxCell>
        <mxCell id="WJhJ3tFlkKqdh5MxnL50-57" value="Send Location Of Cart()" style="html=1;verticalAlign=bottom;endArrow=block;curved=0;rounded=0;" parent="1" target="WJhJ3tFlkKqdh5MxnL50-3" edge="1">
          <mxGeometry width="80" relative="1" as="geometry">
            <mxPoint x="550" y="700" as="sourcePoint" />
            <mxPoint x="620" y="700" as="targetPoint" />
          </mxGeometry>
        </mxCell>
        <mxCell id="WJhJ3tFlkKqdh5MxnL50-61" value="" style="html=1;points=[[0,0,0,0,5],[0,1,0,0,-5],[1,0,0,0,5],[1,1,0,0,-5]];perimeter=orthogonalPerimeter;outlineConnect=0;targetShapes=umlLifeline;portConstraint=eastwest;newEdgeStyle={&quot;curved&quot;:0,&quot;rounded&quot;:0};" parent="1" vertex="1">
          <mxGeometry x="360" y="320" width="10" height="330" as="geometry" />
        </mxCell>
        <mxCell id="WJhJ3tFlkKqdh5MxnL50-62" value="" style="html=1;points=[[0,0,0,0,5],[0,1,0,0,-5],[1,0,0,0,5],[1,1,0,0,-5]];perimeter=orthogonalPerimeter;outlineConnect=0;targetShapes=umlLifeline;portConstraint=eastwest;newEdgeStyle={&quot;curved&quot;:0,&quot;rounded&quot;:0};" parent="1" vertex="1">
          <mxGeometry x="690" y="350" width="10" height="280" as="geometry" />
        </mxCell>
        <mxCell id="WJhJ3tFlkKqdh5MxnL50-36" value="User Connected To Cart" style="html=1;verticalAlign=bottom;endArrow=open;dashed=1;endSize=8;curved=0;rounded=0;exitX=0;exitY=1;exitDx=0;exitDy=-5;" parent="1" target="WJhJ3tFlkKqdh5MxnL50-68" edge="1">
          <mxGeometry relative="1" as="geometry">
            <mxPoint x="850" y="315" as="targetPoint" />
            <mxPoint x="1024.9999999999995" y="315" as="sourcePoint" />
          </mxGeometry>
        </mxCell>
        <mxCell id="WJhJ3tFlkKqdh5MxnL50-41" value="Send Barcode Via UART()" style="html=1;verticalAlign=bottom;endArrow=block;curved=0;rounded=0;" parent="1" edge="1">
          <mxGeometry width="80" relative="1" as="geometry">
            <mxPoint x="370" y="400" as="sourcePoint" />
            <mxPoint x="839.5" y="400" as="targetPoint" />
          </mxGeometry>
        </mxCell>
        <mxCell id="WJhJ3tFlkKqdh5MxnL50-59" value="End Shopping Process" style="html=1;verticalAlign=bottom;endArrow=block;curved=0;rounded=0;" parent="1" target="WJhJ3tFlkKqdh5MxnL50-29" edge="1">
          <mxGeometry width="80" relative="1" as="geometry">
            <mxPoint x="230" y="570" as="sourcePoint" />
            <mxPoint x="1020" y="570" as="targetPoint" />
          </mxGeometry>
        </mxCell>
      </root>
    </mxGraphModel>
  </diagram>
</mxfile>
